# xmcd
#
# Track frame offsets:
#	150
#	14645
#	31230
#	43994
#	60156
#	79767
#	90113
#	103442
#	122521
#	135393
#
# Disc length: 2026 seconds
# Revision: 0
# Processed by: cddbd v1.5.2PL0 Copyright (c) Steve Scherf et al.
# Submitted via: dBpowerAMP V12.0
#
DISCID=7607e80a
DTITLE=Colvin and Earle - Colvin and Earle
DYEAR=2016
DGENRE=Americana
TTITLE0=Come What May
TTITLE1=Tell Moses
TTITLE2=Tobacco Road
TTITLE3=Ruby Tuesday
TTITLE4=The Way That We Do
TTITLE5=Happy and Free
TTITLE6=You Were on My Mind
TTITLE7=You’re Right (I’m Wrong)
TTITLE8=Raise the Dead
TTITLE9=You’re Still Gone
EXTD=
EXTT0=
EXTT1=
EXTT2=
EXTT3=
EXTT4=
EXTT5=
EXTT6=
EXTT7=
EXTT8=
EXTT9=
PLAYORDER=
